<svg width="19" height="25" viewBox="0 0 19 25" fill="none" xmlns="http://www.w3.org/2000/svg">
<path d="M18.875 5.95415V6.25H12.625V0H12.9208C13.2316 0 13.5297 0.123486 13.7495 0.343213L18.5318 5.12549C18.7515 5.34528 18.875 5.64335 18.875 5.95415ZM11.0625 6.64062V0H1.29688C0.649658 0 0.125 0.524658 0.125 1.17188V23.8281C0.125 24.4753 0.649658 25 1.29688 25H17.7031C18.3503 25 18.875 24.4753 18.875 23.8281V7.8125H12.2344C11.5898 7.8125 11.0625 7.28516 11.0625 6.64062ZM15.75 13.6727V19.1396C15.75 20.1867 14.4833 20.702 13.7495 19.9683L11.0625 17.2823V19.1406C11.0625 19.7878 10.5378 20.3125 9.89062 20.3125H4.42188C3.77466 20.3125 3.25 19.7878 3.25 19.1406V13.6719C3.25 13.0247 3.77466 12.5 4.42188 12.5H9.89062C10.5378 12.5 11.0625 13.0247 11.0625 13.6719V15.5302L13.7495 12.844C14.4824 12.1111 15.75 12.6248 15.75 13.6727Z" fill="white"/>
</svg>
